<?xml version="1.0" encoding="UTF-8" standalone="no"?>
<svg
   shape-rendering="geometricPrecision"
   text-rendering="geometricPrecision"
   image-rendering="optimizeQuality"
   fill-rule="evenodd"
   clip-rule="evenodd"
   viewBox="0 0 512.176 512.176"
   version="1.1"
   id="svg5"
   sodipodi:docname="link copy.svg"
   width="512.17603"
   height="512.17603"
   xml:space="preserve"
   inkscape:export-filename="link copy2.svg"
   inkscape:export-xdpi="96"
   inkscape:export-ydpi="96"
   inkscape:version="1.4 (e7c3feb1, 2024-10-09)"
   xmlns:inkscape="http://www.inkscape.org/namespaces/inkscape"
   xmlns:sodipodi="http://sodipodi.sourceforge.net/DTD/sodipodi-0.dtd"
   xmlns:xlink="http://www.w3.org/1999/xlink"
   xmlns="http://www.w3.org/2000/svg"
   xmlns:svg="http://www.w3.org/2000/svg"><defs
     id="defs5"><linearGradient
       id="linearGradient6"
       inkscape:collect="always"><stop
         style="stop-color:#bb44a0;stop-opacity:1;"
         offset="0"
         id="stop6" /><stop
         style="stop-color:#cf7ac0;stop-opacity:1;"
         offset="1"
         id="stop7" /></linearGradient><linearGradient
       inkscape:collect="always"
       xlink:href="#linearGradient6"
       id="linearGradient7"
       x1="256.08801"
       y1="0"
       x2="256.08801"
       y2="512.17603"
       gradientUnits="userSpaceOnUse" /></defs><sodipodi:namedview
     id="namedview5"
     pagecolor="#ffffff"
     bordercolor="#000000"
     borderopacity="0.25"
     inkscape:showpageshadow="2"
     inkscape:pageopacity="0.0"
     inkscape:pagecheckerboard="0"
     inkscape:deskcolor="#d1d1d1"
     showgrid="false"
     inkscape:zoom="0.70710678"
     inkscape:cx="467.39758"
     inkscape:cy="265.87215"
     inkscape:window-width="1920"
     inkscape:window-height="1027"
     inkscape:window-x="0"
     inkscape:window-y="25"
     inkscape:window-maximized="0"
     inkscape:current-layer="svg5"><inkscape:grid
       id="grid6"
       units="px"
       originx="0"
       originy="0"
       spacingx="0.99999995"
       spacingy="0.99999995"
       empcolor="#0099e5"
       empopacity="0.30196078"
       color="#0099e5"
       opacity="0.14901961"
       empspacing="5"
       enabled="true"
       visible="false" /></sodipodi:namedview><rect
     style="fill:url(#linearGradient7);stroke-width:1.04344;fill-opacity:1"
     id="rect5"
     width="512.17603"
     height="512.17603"
     x="0"
     y="0"
     rx="100"
     ry="100" /><g
     id="g8"><path
       fill="#1689fc"
       d="m 254.00682,180.77253 82.04237,-82.043238 c 9.96425,-9.965137 23.09676,-14.950341 36.224,-14.950341 13.12635,0 26.25886,4.985204 36.224,14.950341 l 0.0597,0.06326 c 9.92472,9.958108 14.8906,23.064258 14.8906,36.160738 0,13.12372 -4.98433,26.25623 -14.94771,36.22136 l -84.33289,84.33465 c -6.07731,6.07731 -13.72556,10.45188 -21.95282,12.88913 -8.23692,2.43813 -17.09677,2.91873 -25.57004,1.20369 -11.24262,-2.27559 -18.26004,-8.09195 -25.23968,-13.87756 -14.45305,-15.02063 -38.24479,-16.34118 -54.52885,-0.0571 l -0.0659,0.0659 c 3.88344,11.75134 11.5888,23.21011 21.22007,32.95999 10.22696,10.35084 22.52215,18.68792 34.66096,23.35331 17.38583,6.68179 36.39181,8.11656 54.49898,4.3078 17.47457,-3.67784 34.11623,-12.28377 47.64323,-25.81077 L 440.9203,204.4571 c 18.57722,-18.57722 27.86847,-43.07711 27.86847,-67.57701 0,-24.48496 -9.27895,-48.966403 -27.83069,-67.54011 l -0.0387,-0.0369 c -18.5781,-18.5781 -43.07624,-27.868468 -67.57613,-27.868468 -24.50078,0 -48.99892,9.290368 -67.57614,27.866711 l -86.08746,86.088337 c -4.9237,4.9237 -9.17879,10.22608 -12.7591,15.79819 a 94.977187,94.977187 0 0 0 -4.71811,8.20705 109.18686,109.18686 0 0 1 23.08446,-2.46449 c 9.66729,0 19.3337,1.28189 28.71984,3.84214 z"
       id="path1"
       style="stroke-width:0.878605" /><path
       fill="#5b9ffc"
       d="m 219.78867,290.43296 33.30792,-33.30879 c 6.44808,5.30238 13.21246,10.38511 23.54748,12.47795 8.47327,1.71504 17.33312,1.23444 25.57004,-1.20369 8.22726,-2.43725 15.87551,-6.81182 21.95282,-12.88913 l 84.33289,-84.33465 c 9.96338,-9.96513 14.94771,-23.09764 14.94771,-36.22136 0,-12.46301 -4.4967,-24.93568 -13.48571,-34.69435 l 30.95764,-30.955883 0.0387,0.0369 c 18.55174,18.573707 27.83069,43.055153 27.83069,67.540113 0,24.4999 -9.29125,48.99979 -27.86847,67.57701 l -86.08746,86.08659 c -13.527,13.527 -30.16866,22.13293 -47.64323,25.81077 -18.10717,3.80876 -37.11315,2.37399 -54.49898,-4.3078 -11.45174,-4.40093 -23.04141,-12.06939 -32.902,-21.61368 z"
       id="path2"
       style="stroke-width:0.878605" /><path
       fill="#a3d4ff"
       d="m 67.465829,442.7479 h 8.79e-4 c 39.645292,39.64617 104.518832,39.64617 144.164122,0 l 84.81261,-84.8126 a 101.01496,101.01496 0 0 0 24.80828,-40.60297 c -26.25271,4.23488 -52.84984,4.46419 -66.80384,0.41822 l -83.76707,83.76618 c -17.91563,17.91652 -47.23643,17.91827 -65.15557,0 -17.917394,-17.91738 -17.916516,-47.23643 8.7e-4,-65.1547 l 82.85068,-82.8498 c 17.91739,-17.91827 47.23644,-17.91827 65.15383,-8.8e-4 1.75018,1.7493 5.92091,4.29199 10.85692,6.79689 19.58146,9.93263 38.21843,6.64928 56.01018,-8.468 A 101.00705,101.00705 0 0 0 296.44344,213.7703 c -39.64529,-39.64529 -104.51972,-39.64529 -144.16501,0 l -84.812601,84.8126 c -39.645287,39.64529 -39.645287,104.51972 0,144.165 z"
       id="path3"
       style="stroke-width:0.878605" /><path
       fill="#bfe0ff"
       d="m 105.19137,405.0294 -33.56974,33.56973 0.0018,0.002 c 18.576343,18.57722 43.07536,27.86759 67.57701,27.86759 24.50077,0 48.99891,-9.29037 67.57701,-27.86759 l 86.08659,-86.08658 c 5.09415,-5.09416 9.46345,-10.57753 13.10263,-16.32536 a 93.533639,93.533639 0 0 0 4.37809,-7.69834 l -0.60184,0.13004 a 109.22816,109.22816 0 0 1 -55.80459,-2.88359 l -77.8277,77.82682 c -9.96514,9.96514 -23.09764,14.95034 -36.22488,14.95034 -12.463,0 -24.93656,-4.49757 -34.69434,-13.48482 z m 187.67087,-187.67088 -30.84782,30.84781 c 4.98345,4.03544 10.22872,7.74315 17.08272,9.12959 6.44017,1.30297 13.22827,0.92341 19.5841,-0.95768 5.44735,-1.614 10.55995,-4.35085 14.83437,-8.09547 a 94.26991,94.26991 0 0 0 -7.74666,-14.92222 c -3.58735,-5.61429 -7.88987,-10.9852 -12.90495,-16.00115 z"
       id="path4"
       style="stroke-width:0.878605" /><path
       fill="#1a1a1a"
       fill-rule="nonzero"
       d="m 186.44035,184.07872 a 107.07206,107.07206 0 0 1 9.93175,-19.66317 107.60977,107.60977 0 0 1 14.42581,-17.90773 l 86.08658,-86.086579 c 21.03029,-21.030287 48.7494,-31.547187 76.45884,-31.547187 59.87165,0 108.00601,48.131732 108.00601,108.006016 0,27.7112 -10.51777,55.42854 -31.54718,76.45883 l -86.08746,86.08658 a 107.10633,107.10633 0 0 1 -37.57706,24.3725 107.25393,107.25393 0 0 1 -9.57503,19.06221 107.51488,107.51488 0 0 1 -14.81679,18.53505 l -86.08659,86.08659 c -41.85586,41.85585 -111.06356,41.85761 -152.917659,0 -41.856737,-41.8541 -41.855858,-111.06181 0,-152.91767 l 86.086579,-86.08658 a 107.17047,107.17047 0 0 1 37.6122,-24.39886 z m 67.49794,141.65834 -77.8277,77.82682 c -19.8345,19.83451 -52.61261,19.83451 -72.44712,0 -19.917971,-19.91885 -19.917093,-52.52651 -0.002,-72.448 l 84.33201,-84.33025 c 7.77829,-7.77741 17.63624,-12.80918 28.50458,-14.51543 22.07934,-3.46785 32.45654,5.13105 42.90491,13.7897 5.80055,4.80949 11.63537,9.64533 19.69393,11.27602 6.44017,1.30297 13.22827,0.92341 19.5841,-0.95768 5.44735,-1.614 10.55995,-4.35085 14.83437,-8.09547 -14.62438,-35.55274 -49.40747,-58.79184 -88.22863,-58.79184 -24.50165,0 -49.00067,9.29037 -67.57701,27.86847 l -86.086586,86.08658 c -36.977843,36.97784 -36.978721,98.17882 0,135.15491 36.976086,36.97872 98.177066,36.97696 135.154026,0 l 86.08659,-86.08658 c 5.09415,-5.09416 9.46345,-10.57753 13.10263,-16.32536 a 93.533639,93.533639 0 0 0 4.37809,-7.69834 l -0.60184,0.13004 a 109.22816,109.22816 0 0 1 -55.80459,-2.88359 z m 69.11984,-86.8826 76.55724,-76.55811 c 7.51383,-7.51559 11.27162,-17.42801 11.27162,-27.34306 a 38.489922,38.489922 0 0 0 -38.6138,-38.613804 c -9.91506,0 -19.83012,3.758674 -27.34307,11.271624 l -77.70205,77.70381 c 24.65804,10.30516 44.49255,29.42623 55.83006,53.53954 z m -69.05131,-58.08193 82.04237,-82.043238 c 9.96425,-9.965137 23.09676,-14.950341 36.224,-14.950341 28.3596,0 51.17434,22.815609 51.17434,51.174339 0,13.12372 -4.98433,26.25623 -14.94771,36.22136 l -84.33289,84.33465 c -6.07731,6.07731 -13.72556,10.45188 -21.95282,12.88913 -8.23692,2.43813 -17.09677,2.91873 -25.57004,1.20369 -11.24262,-2.27559 -18.26004,-8.09195 -25.23968,-13.87756 -8.28261,-6.86454 -16.50986,-13.67988 -32.99337,-11.09151 -8.23955,1.29243 -15.7156,5.21452 -21.60138,11.10029 3.88344,11.75134 11.5888,23.21011 21.22007,32.95999 10.22696,10.35084 22.52215,18.68792 34.66096,23.35331 17.38583,6.68179 36.39181,8.11656 54.49898,4.3078 17.47457,-3.67784 34.11623,-12.28377 47.64323,-25.81077 l 86.08746,-86.08659 c 18.57722,-18.57722 27.86847,-43.07711 27.86847,-67.57701 A 95.161694,95.161694 0 0 0 373.34333,41.434589 c -24.50078,0 -48.99892,9.290368 -67.57614,27.866711 l -86.08746,86.08834 c -4.9237,4.9237 -9.17879,10.22608 -12.7591,15.79819 a 94.977187,94.977187 0 0 0 -4.71811,8.20705 109.18686,109.18686 0 0 1 23.08446,-2.46449 c 9.66729,0 19.3337,1.28189 28.71984,3.84214 z m -66.92245,84.68609 -74.54084,74.53908 c -15.041715,15.04435 -15.042593,39.64002 0.002,54.68437 14.95561,14.95649 39.72699,14.95649 54.68348,0 l 73.99347,-73.99171 c -11.43944,-5.50973 -22.62583,-13.60344 -32.12267,-23.21538 -9.35275,-9.46609 -17.14071,-20.47061 -22.0152,-32.01636 z"
       id="path5"
       style="stroke-width:0.878605" /></g></svg>
